<?xml version="1.0" encoding="utf-8" standalone="no"?>
<!DOCTYPE svg PUBLIC "-//W3C//DTD SVG 1.1//EN"
  "http://www.w3.org/Graphics/SVG/1.1/DTD/svg11.dtd">
<!-- Created with matplotlib (http://matplotlib.org/) -->
<svg height="280pt" version="1.1" viewBox="0 0 389 280" width="389pt" xmlns="http://www.w3.org/2000/svg" xmlns:xlink="http://www.w3.org/1999/xlink">
 <defs>
  <style type="text/css">
*{stroke-linecap:butt;stroke-linejoin:round;}
  </style>
 </defs>
 <g id="figure_1">
  <g id="patch_1">
   <path d="
M0 280.076
L389.916 280.076
L389.916 0
L0 0
z
" style="fill:#ffffff;"/>
  </g>
  <g id="axes_1">
   <g id="patch_2">
    <path d="
M45.2594 244.52
L380.059 244.52
L380.059 21.32
L45.2594 21.32
z
" style="fill:#ffffff;"/>
   </g>
   <g id="PathCollection_1">
    <defs>
     <path d="
M0 2.23607
C0.593012 2.23607 1.16182 2.00046 1.58114 1.58114
C2.00046 1.16182 2.23607 0.593012 2.23607 0
C2.23607 -0.593012 2.00046 -1.16182 1.58114 -1.58114
C1.16182 -2.00046 0.593012 -2.23607 0 -2.23607
C-0.593012 -2.23607 -1.16182 -2.00046 -1.58114 -1.58114
C-2.00046 -1.16182 -2.23607 -0.593012 -2.23607 0
C-2.23607 0.593012 -2.00046 1.16182 -1.58114 1.58114
C-1.16182 2.00046 -0.593012 2.23607 0 2.23607
z
" id="m892ea4c8d5" style="stroke:#000000;"/>
    </defs>
    <g clip-path="url(#p000d492ab2)">
     <use style="fill:#0000ff;stroke:#000000;" x="235.160744809" xlink:href="#m892ea4c8d5" y="131.621784728"/>
     <use style="fill:#0000ff;stroke:#000000;" x="289.40746225" xlink:href="#m892ea4c8d5" y="99.322648136"/>
     <use style="fill:#0000ff;stroke:#000000;" x="118.126632235" xlink:href="#m892ea4c8d5" y="203.430504152"/>
     <use style="fill:#0000ff;stroke:#000000;" x="248.741328442" xlink:href="#m892ea4c8d5" y="105.164309216"/>
     <use style="fill:#0000ff;stroke:#000000;" x="225.999700294" xlink:href="#m892ea4c8d5" y="106.9538606"/>
     <use style="fill:#0000ff;stroke:#000000;" x="157.932619645" xlink:href="#m892ea4c8d5" y="180.838254464"/>
     <use style="fill:#0000ff;stroke:#000000;" x="194.513548963" xlink:href="#m892ea4c8d5" y="113.581324808"/>
     <use style="fill:#0000ff;stroke:#000000;" x="226.998209069" xlink:href="#m892ea4c8d5" y="135.048616587"/>
     <use style="fill:#0000ff;stroke:#000000;" x="362.415285265" xlink:href="#m892ea4c8d5" y="43.38892976"/>
     <use style="fill:#0000ff;stroke:#000000;" x="328.56031345" xlink:href="#m892ea4c8d5" y="101.322142184"/>
     <use style="fill:#0000ff;stroke:#000000;" x="156.166608235" xlink:href="#m892ea4c8d5" y="169.729324856"/>
     <use style="fill:#0000ff;stroke:#000000;" x="339.670923475" xlink:href="#m892ea4c8d5" y="83.049001472"/>
     <use style="fill:#0000ff;stroke:#000000;" x="243.017541607" xlink:href="#m892ea4c8d5" y="95.948115608"/>
     <use style="fill:#0000ff;stroke:#000000;" x="210.020528565" xlink:href="#m892ea4c8d5" y="165.764675336"/>
     <use style="fill:#0000ff;stroke:#000000;" x="242.571365365" xlink:href="#m892ea4c8d5" y="101.547139688"/>
     <use style="fill:#0000ff;stroke:#000000;" x="204.081545389" xlink:href="#m892ea4c8d5" y="143.020920464"/>
     <use style="fill:#0000ff;stroke:#000000;" x="207.463933952" xlink:href="#m892ea4c8d5" y="127.572141913"/>
     <use style="fill:#0000ff;stroke:#000000;" x="275.00321956" xlink:href="#m892ea4c8d5" y="104.749015856"/>
     <use style="fill:#0000ff;stroke:#000000;" x="271.627468825" xlink:href="#m892ea4c8d5" y="87.900129968"/>
     <use style="fill:#0000ff;stroke:#000000;" x="271.96887694" xlink:href="#m892ea4c8d5" y="80.781337832"/>
     <use style="fill:#0000ff;stroke:#000000;" x="240.76152989" xlink:href="#m892ea4c8d5" y="112.355004488"/>
     <use style="fill:#0000ff;stroke:#000000;" x="162.126048235" xlink:href="#m892ea4c8d5" y="155.475670184"/>
     <use style="fill:#0000ff;stroke:#000000;" x="242.675812502" xlink:href="#m892ea4c8d5" y="112.717579496"/>
     <use style="fill:#0000ff;stroke:#000000;" x="280.884722305" xlink:href="#m892ea4c8d5" y="122.084225528"/>
     <use style="fill:#0000ff;stroke:#000000;" x="233.119579274" xlink:href="#m892ea4c8d5" y="130.748275458"/>
     <use style="fill:#0000ff;stroke:#000000;" x="255.96127705" xlink:href="#m892ea4c8d5" y="81.63228188"/>
     <use style="fill:#0000ff;stroke:#000000;" x="243.07951769" xlink:href="#m892ea4c8d5" y="129.785054965"/>
     <use style="fill:#0000ff;stroke:#000000;" x="199.960372498" xlink:href="#m892ea4c8d5" y="130.645012722"/>
     <use style="fill:#0000ff;stroke:#000000;" x="224.957896019" xlink:href="#m892ea4c8d5" y="105.348025136"/>
     <use style="fill:#0000ff;stroke:#000000;" x="179.71158982" xlink:href="#m892ea4c8d5" y="128.928315008"/>
     <use style="fill:#0000ff;stroke:#000000;" x="249.838732115" xlink:href="#m892ea4c8d5" y="110.344206104"/>
     <use style="fill:#0000ff;stroke:#000000;" x="164.654491315" xlink:href="#m892ea4c8d5" y="152.094830024"/>
     <use style="fill:#0000ff;stroke:#000000;" x="167.927144575" xlink:href="#m892ea4c8d5" y="152.139801848"/>
     <use style="fill:#0000ff;stroke:#000000;" x="178.781854823" xlink:href="#m892ea4c8d5" y="132.664361213"/>
     <use style="fill:#0000ff;stroke:#000000;" x="89.44108123" xlink:href="#m892ea4c8d5" y="195.378649712"/>
     <use style="fill:#0000ff;stroke:#000000;" x="272.855590555" xlink:href="#m892ea4c8d5" y="112.857726032"/>
     <use style="fill:#0000ff;stroke:#000000;" x="226.268599099" xlink:href="#m892ea4c8d5" y="114.731405216"/>
     <use style="fill:#0000ff;stroke:#000000;" x="181.065624808" xlink:href="#m892ea4c8d5" y="184.168171544"/>
     <use style="fill:#0000ff;stroke:#000000;" x="270.006367225" xlink:href="#m892ea4c8d5" y="117.269094728"/>
     <use style="fill:#0000ff;stroke:#000000;" x="141.03241366" xlink:href="#m892ea4c8d5" y="194.325347336"/>
     <use style="fill:#0000ff;stroke:#000000;" x="208.380528467" xlink:href="#m892ea4c8d5" y="133.16284622"/>
     <use style="fill:#0000ff;stroke:#000000;" x="202.554816376" xlink:href="#m892ea4c8d5" y="139.721488412"/>
     <use style="fill:#0000ff;stroke:#000000;" x="226.018177069" xlink:href="#m892ea4c8d5" y="111.77994308"/>
     <use style="fill:#0000ff;stroke:#000000;" x="225.75250741" xlink:href="#m892ea4c8d5" y="122.355318296"/>
     <use style="fill:#0000ff;stroke:#000000;" x="176.464150348" xlink:href="#m892ea4c8d5" y="184.471841096"/>
     <use style="fill:#0000ff;stroke:#000000;" x="211.401728262" xlink:href="#m892ea4c8d5" y="139.539231848"/>
     <use style="fill:#0000ff;stroke:#000000;" x="205.759188013" xlink:href="#m892ea4c8d5" y="162.864118424"/>
     <use style="fill:#0000ff;stroke:#000000;" x="238.928925086" xlink:href="#m892ea4c8d5" y="139.463024672"/>
     <use style="fill:#0000ff;stroke:#000000;" x="258.412544545" xlink:href="#m892ea4c8d5" y="92.991150848"/>
     <use style="fill:#0000ff;stroke:#000000;" x="259.082462605" xlink:href="#m892ea4c8d5" y="135.243464533"/>
     <use style="fill:#0000ff;stroke:#000000;" x="176.515504483" xlink:href="#m892ea4c8d5" y="154.267951352"/>
     <use style="fill:#0000ff;stroke:#000000;" x="215.896852958" xlink:href="#m892ea4c8d5" y="117.55988564"/>
     <use style="fill:#0000ff;stroke:#000000;" x="161.84857855" xlink:href="#m892ea4c8d5" y="135.446254306"/>
     <use style="fill:#0000ff;stroke:#000000;" x="166.059370705" xlink:href="#m892ea4c8d5" y="168.926391872"/>
     <use style="fill:#0000ff;stroke:#000000;" x="212.372730619" xlink:href="#m892ea4c8d5" y="111.543412832"/>
     <use style="fill:#0000ff;stroke:#000000;" x="276.799953055" xlink:href="#m892ea4c8d5" y="101.016719024"/>
     <use style="fill:#0000ff;stroke:#000000;" x="180.448856666" xlink:href="#m892ea4c8d5" y="145.902056"/>
     <use style="fill:#0000ff;stroke:#000000;" x="228.201578198" xlink:href="#m892ea4c8d5" y="103.808252408"/>
     <use style="fill:#0000ff;stroke:#000000;" x="203.21866786" xlink:href="#m892ea4c8d5" y="139.406555518"/>
     <use style="fill:#0000ff;stroke:#000000;" x="259.420727785" xlink:href="#m892ea4c8d5" y="108.09196484"/>
     <use style="fill:#0000ff;stroke:#000000;" x="167.082034045" xlink:href="#m892ea4c8d5" y="157.93275176"/>
     <use style="fill:#0000ff;stroke:#000000;" x="214.021904868" xlink:href="#m892ea4c8d5" y="111.065325872"/>
     <use style="fill:#0000ff;stroke:#000000;" x="235.782630787" xlink:href="#m892ea4c8d5" y="150.45333836"/>
     <use style="fill:#0000ff;stroke:#000000;" x="258.71991187" xlink:href="#m892ea4c8d5" y="119.906423696"/>
     <use style="fill:#0000ff;stroke:#000000;" x="277.284643015" xlink:href="#m892ea4c8d5" y="114.158650208"/>
     <use style="fill:#0000ff;stroke:#000000;" x="216.255592916" xlink:href="#m892ea4c8d5" y="150.963672512"/>
     <use style="fill:#0000ff;stroke:#000000;" x="150.236320945" xlink:href="#m892ea4c8d5" y="164.544153008"/>
     <use style="fill:#0000ff;stroke:#000000;" x="181.594042996" xlink:href="#m892ea4c8d5" y="123.7770398"/>
     <use style="fill:#0000ff;stroke:#000000;" x="168.232180855" xlink:href="#m892ea4c8d5" y="171.466674968"/>
     <use style="fill:#0000ff;stroke:#000000;" x="311.02600882" xlink:href="#m892ea4c8d5" y="98.805630632"/>
     <use style="fill:#0000ff;stroke:#000000;" x="186.896436322" xlink:href="#m892ea4c8d5" y="145.608173768"/>
     <use style="fill:#0000ff;stroke:#000000;" x="243.966388243" xlink:href="#m892ea4c8d5" y="112.895193128"/>
     <use style="fill:#0000ff;stroke:#000000;" x="204.606660356" xlink:href="#m892ea4c8d5" y="123.818455304"/>
     <use style="fill:#0000ff;stroke:#000000;" x="249.847721495" xlink:href="#m892ea4c8d5" y="122.015097512"/>
     <use style="fill:#0000ff;stroke:#000000;" x="180.650434306" xlink:href="#m892ea4c8d5" y="157.80509624"/>
     <use style="fill:#0000ff;stroke:#000000;" x="153.97441735" xlink:href="#m892ea4c8d5" y="159.497470808"/>
     <use style="fill:#0000ff;stroke:#000000;" x="153.132943585" xlink:href="#m892ea4c8d5" y="181.7295062"/>
     <use style="fill:#0000ff;stroke:#000000;" x="233.090290133" xlink:href="#m892ea4c8d5" y="108.897418496"/>
     <use style="fill:#0000ff;stroke:#000000;" x="205.236224554" xlink:href="#m892ea4c8d5" y="132.867107553"/>
     <use style="fill:#0000ff;stroke:#000000;" x="204.454536443" xlink:href="#m892ea4c8d5" y="160.53965336"/>
     <use style="fill:#0000ff;stroke:#000000;" x="272.05750687" xlink:href="#m892ea4c8d5" y="118.795816952"/>
     <use style="fill:#0000ff;stroke:#000000;" x="224.862180884" xlink:href="#m892ea4c8d5" y="136.014197718"/>
     <use style="fill:#0000ff;stroke:#000000;" x="220.937767442" xlink:href="#m892ea4c8d5" y="113.956893776"/>
     <use style="fill:#0000ff;stroke:#000000;" x="279.104582335" xlink:href="#m892ea4c8d5" y="116.0592116"/>
     <use style="fill:#0000ff;stroke:#000000;" x="178.992474574" xlink:href="#m892ea4c8d5" y="128.789986213"/>
     <use style="fill:#0000ff;stroke:#000000;" x="241.813106977" xlink:href="#m892ea4c8d5" y="89.756719472"/>
     <use style="fill:#0000ff;stroke:#000000;" x="247.607814914" xlink:href="#m892ea4c8d5" y="136.712852629"/>
     <use style="fill:#0000ff;stroke:#000000;" x="202.459896391" xlink:href="#m892ea4c8d5" y="141.093828776"/>
     <use style="fill:#0000ff;stroke:#000000;" x="221.685168266" xlink:href="#m892ea4c8d5" y="160.333700024"/>
     <use style="fill:#0000ff;stroke:#000000;" x="163.868807785" xlink:href="#m892ea4c8d5" y="148.86811616"/>
     <use style="fill:#0000ff;stroke:#000000;" x="164.61755032" xlink:href="#m892ea4c8d5" y="141.2317262"/>
     <use style="fill:#0000ff;stroke:#000000;" x="217.048382032" xlink:href="#m892ea4c8d5" y="126.366194396"/>
     <use style="fill:#0000ff;stroke:#000000;" x="242.885706155" xlink:href="#m892ea4c8d5" y="110.015169128"/>
     <use style="fill:#0000ff;stroke:#000000;" x="320.862185905" xlink:href="#m892ea4c8d5" y="66.375384128"/>
     <use style="fill:#0000ff;stroke:#000000;" x="184.75000046" xlink:href="#m892ea4c8d5" y="169.840202432"/>
     <use style="fill:#0000ff;stroke:#000000;" x="220.499178187" xlink:href="#m892ea4c8d5" y="134.36383125"/>
     <use style="fill:#0000ff;stroke:#000000;" x="209.206983314" xlink:href="#m892ea4c8d5" y="137.188089697"/>
     <use style="fill:#0000ff;stroke:#000000;" x="131.762366635" xlink:href="#m892ea4c8d5" y="187.041155072"/>
     <use style="fill:#0000ff;stroke:#000000;" x="194.288641622" xlink:href="#m892ea4c8d5" y="144.432076424"/>
     <use style="fill:#0000ff;stroke:#000000;" x="137.55206722" xlink:href="#m892ea4c8d5" y="180.551959544"/>
     <use style="fill:#0000ff;stroke:#000000;" x="247.82909093" xlink:href="#m892ea4c8d5" y="127.067283675"/>
     <use style="fill:#0000ff;stroke:#000000;" x="175.495232452" xlink:href="#m892ea4c8d5" y="185.168116472"/>
     <use style="fill:#0000ff;stroke:#000000;" x="216.848259935" xlink:href="#m892ea4c8d5" y="102.411344792"/>
     <use style="fill:#0000ff;stroke:#000000;" x="189.870839279" xlink:href="#m892ea4c8d5" y="144.293333072"/>
     <use style="fill:#0000ff;stroke:#000000;" x="225.361720061" xlink:href="#m892ea4c8d5" y="124.607423408"/>
     <use style="fill:#0000ff;stroke:#000000;" x="187.535708464" xlink:href="#m892ea4c8d5" y="152.135171192"/>
     <use style="fill:#0000ff;stroke:#000000;" x="233.164423642" xlink:href="#m892ea4c8d5" y="107.639153792"/>
     <use style="fill:#0000ff;stroke:#000000;" x="243.601721572" xlink:href="#m892ea4c8d5" y="121.27255724"/>
     <use style="fill:#0000ff;stroke:#000000;" x="284.30187943" xlink:href="#m892ea4c8d5" y="115.302806888"/>
     <use style="fill:#0000ff;stroke:#000000;" x="204.535304851" xlink:href="#m892ea4c8d5" y="127.229711523"/>
     <use style="fill:#0000ff;stroke:#000000;" x="123.169205695" xlink:href="#m892ea4c8d5" y="145.380021704"/>
     <use style="fill:#0000ff;stroke:#000000;" x="177.522585812" xlink:href="#m892ea4c8d5" y="154.882598768"/>
     <use style="fill:#0000ff;stroke:#000000;" x="269.349146455" xlink:href="#m892ea4c8d5" y="76.305644384"/>
     <use style="fill:#0000ff;stroke:#000000;" x="167.789675695" xlink:href="#m892ea4c8d5" y="147.273570152"/>
     <use style="fill:#0000ff;stroke:#000000;" x="252.875294459" xlink:href="#m892ea4c8d5" y="103.855253864"/>
     <use style="fill:#0000ff;stroke:#000000;" x="217.85085913" xlink:href="#m892ea4c8d5" y="146.997211352"/>
     <use style="fill:#0000ff;stroke:#000000;" x="272.78512771" xlink:href="#m892ea4c8d5" y="102.124749296"/>
     <use style="fill:#0000ff;stroke:#000000;" x="130.59571" xlink:href="#m892ea4c8d5" y="174.660637208"/>
     <use style="fill:#0000ff;stroke:#000000;" x="204.385704074" xlink:href="#m892ea4c8d5" y="172.223951648"/>
     <use style="fill:#0000ff;stroke:#000000;" x="162.111040825" xlink:href="#m892ea4c8d5" y="159.73001768"/>
     <use style="fill:#0000ff;stroke:#000000;" x="334.3595098" xlink:href="#m892ea4c8d5" y="65.846339864"/>
     <use style="fill:#0000ff;stroke:#000000;" x="247.194785546" xlink:href="#m892ea4c8d5" y="123.787376192"/>
     <use style="fill:#0000ff;stroke:#000000;" x="270.3693532" xlink:href="#m892ea4c8d5" y="87.08759864"/>
     <use style="fill:#0000ff;stroke:#000000;" x="168.374529445" xlink:href="#m892ea4c8d5" y="179.104281368"/>
     <use style="fill:#0000ff;stroke:#000000;" x="193.047812977" xlink:href="#m892ea4c8d5" y="154.359508736"/>
     <use style="fill:#0000ff;stroke:#000000;" x="201.256530191" xlink:href="#m892ea4c8d5" y="136.386565923"/>
    </g>
   </g>
   <g id="patch_3">
    <path d="
M45.2594 21.32
L380.059 21.32" style="fill:none;stroke:#000000;stroke-linecap:square;stroke-linejoin:miter;"/>
   </g>
   <g id="patch_4">
    <path d="
M380.059 244.52
L380.059 21.32" style="fill:none;stroke:#000000;stroke-linecap:square;stroke-linejoin:miter;"/>
   </g>
   <g id="patch_5">
    <path d="
M45.2594 244.52
L380.059 244.52" style="fill:none;stroke:#000000;stroke-linecap:square;stroke-linejoin:miter;"/>
   </g>
   <g id="patch_6">
    <path d="
M45.2594 244.52
L45.2594 21.32" style="fill:none;stroke:#000000;stroke-linecap:square;stroke-linejoin:miter;"/>
   </g>
   <g id="matplotlib.axis_1">
    <g id="xtick_1">
     <g id="line2d_1">
      <defs>
       <path d="
M0 0
L0 -4" id="m93b0483c22" style="stroke:#000000;stroke-width:0.5;"/>
      </defs>
      <g>
       <use style="stroke:#000000;stroke-width:0.5;" x="45.259375" xlink:href="#m93b0483c22" y="244.52"/>
      </g>
     </g>
     <g id="line2d_2">
      <defs>
       <path d="
M0 0
L0 4" id="m741efc42ff" style="stroke:#000000;stroke-width:0.5;"/>
      </defs>
      <g>
       <use style="stroke:#000000;stroke-width:0.5;" x="45.259375" xlink:href="#m741efc42ff" y="21.32"/>
      </g>
     </g>
     <g id="text_1">
      <!-- −4 -->
      <defs>
       <path d="
M10.5938 35.5
L73.1875 35.5
L73.1875 27.2031
L10.5938 27.2031
z
" id="BitstreamVeraSans-Roman-2212"/>
       <path d="
M37.7969 64.3125
L12.8906 25.3906
L37.7969 25.3906
z

M35.2031 72.9062
L47.6094 72.9062
L47.6094 25.3906
L58.0156 25.3906
L58.0156 17.1875
L47.6094 17.1875
L47.6094 0
L37.7969 0
L37.7969 17.1875
L4.89062 17.1875
L4.89062 26.7031
z
" id="BitstreamVeraSans-Roman-34"/>
      </defs>
      <g transform="translate(38.6984375 256.1184375)scale(0.1 -0.1)">
       <use xlink:href="#BitstreamVeraSans-Roman-2212"/>
       <use x="83.7890625" xlink:href="#BitstreamVeraSans-Roman-34"/>
      </g>
     </g>
    </g>
    <g id="xtick_2">
     <g id="line2d_3">
      <g>
       <use style="stroke:#000000;stroke-width:0.5;" x="87.109375" xlink:href="#m93b0483c22" y="244.52"/>
      </g>
     </g>
     <g id="line2d_4">
      <g>
       <use style="stroke:#000000;stroke-width:0.5;" x="87.109375" xlink:href="#m741efc42ff" y="21.32"/>
      </g>
     </g>
     <g id="text_2">
      <!-- −3 -->
      <defs>
       <path d="
M40.5781 39.3125
Q47.6562 37.7969 51.625 33
Q55.6094 28.2188 55.6094 21.1875
Q55.6094 10.4062 48.1875 4.48438
Q40.7656 -1.42188 27.0938 -1.42188
Q22.5156 -1.42188 17.6562 -0.515625
Q12.7969 0.390625 7.625 2.20312
L7.625 11.7188
Q11.7188 9.32812 16.5938 8.10938
Q21.4844 6.89062 26.8125 6.89062
Q36.0781 6.89062 40.9375 10.5469
Q45.7969 14.2031 45.7969 21.1875
Q45.7969 27.6406 41.2812 31.2656
Q36.7656 34.9062 28.7188 34.9062
L20.2188 34.9062
L20.2188 43.0156
L29.1094 43.0156
Q36.375 43.0156 40.2344 45.9219
Q44.0938 48.8281 44.0938 54.2969
Q44.0938 59.9062 40.1094 62.9062
Q36.1406 65.9219 28.7188 65.9219
Q24.6562 65.9219 20.0156 65.0312
Q15.375 64.1562 9.8125 62.3125
L9.8125 71.0938
Q15.4375 72.6562 20.3438 73.4375
Q25.25 74.2188 29.5938 74.2188
Q40.8281 74.2188 47.3594 69.1094
Q53.9062 64.0156 53.9062 55.3281
Q53.9062 49.2656 50.4375 45.0938
Q46.9688 40.9219 40.5781 39.3125" id="BitstreamVeraSans-Roman-33"/>
      </defs>
      <g transform="translate(80.66875 256.1184375)scale(0.1 -0.1)">
       <use xlink:href="#BitstreamVeraSans-Roman-2212"/>
       <use x="83.7890625" xlink:href="#BitstreamVeraSans-Roman-33"/>
      </g>
     </g>
    </g>
    <g id="xtick_3">
     <g id="line2d_5">
      <g>
       <use style="stroke:#000000;stroke-width:0.5;" x="128.959375" xlink:href="#m93b0483c22" y="244.52"/>
      </g>
     </g>
     <g id="line2d_6">
      <g>
       <use style="stroke:#000000;stroke-width:0.5;" x="128.959375" xlink:href="#m741efc42ff" y="21.32"/>
      </g>
     </g>
     <g id="text_3">
      <!-- −2 -->
      <defs>
       <path d="
M19.1875 8.29688
L53.6094 8.29688
L53.6094 0
L7.32812 0
L7.32812 8.29688
Q12.9375 14.1094 22.625 23.8906
Q32.3281 33.6875 34.8125 36.5312
Q39.5469 41.8438 41.4219 45.5312
Q43.3125 49.2188 43.3125 52.7812
Q43.3125 58.5938 39.2344 62.25
Q35.1562 65.9219 28.6094 65.9219
Q23.9688 65.9219 18.8125 64.3125
Q13.6719 62.7031 7.8125 59.4219
L7.8125 69.3906
Q13.7656 71.7812 18.9375 73
Q24.125 74.2188 28.4219 74.2188
Q39.75 74.2188 46.4844 68.5469
Q53.2188 62.8906 53.2188 53.4219
Q53.2188 48.9219 51.5312 44.8906
Q49.8594 40.875 45.4062 35.4062
Q44.1875 33.9844 37.6406 27.2188
Q31.1094 20.4531 19.1875 8.29688" id="BitstreamVeraSans-Roman-32"/>
      </defs>
      <g transform="translate(122.61875 256.1184375)scale(0.1 -0.1)">
       <use xlink:href="#BitstreamVeraSans-Roman-2212"/>
       <use x="83.7890625" xlink:href="#BitstreamVeraSans-Roman-32"/>
      </g>
     </g>
    </g>
    <g id="xtick_4">
     <g id="line2d_7">
      <g>
       <use style="stroke:#000000;stroke-width:0.5;" x="170.809375" xlink:href="#m93b0483c22" y="244.52"/>
      </g>
     </g>
     <g id="line2d_8">
      <g>
       <use style="stroke:#000000;stroke-width:0.5;" x="170.809375" xlink:href="#m741efc42ff" y="21.32"/>
      </g>
     </g>
     <g id="text_4">
      <!-- −1 -->
      <defs>
       <path d="
M12.4062 8.29688
L28.5156 8.29688
L28.5156 63.9219
L10.9844 60.4062
L10.9844 69.3906
L28.4219 72.9062
L38.2812 72.9062
L38.2812 8.29688
L54.3906 8.29688
L54.3906 0
L12.4062 0
z
" id="BitstreamVeraSans-Roman-31"/>
      </defs>
      <g transform="translate(164.4296875 256.1184375)scale(0.1 -0.1)">
       <use xlink:href="#BitstreamVeraSans-Roman-2212"/>
       <use x="83.7890625" xlink:href="#BitstreamVeraSans-Roman-31"/>
      </g>
     </g>
    </g>
    <g id="xtick_5">
     <g id="line2d_9">
      <g>
       <use style="stroke:#000000;stroke-width:0.5;" x="212.659375" xlink:href="#m93b0483c22" y="244.52"/>
      </g>
     </g>
     <g id="line2d_10">
      <g>
       <use style="stroke:#000000;stroke-width:0.5;" x="212.659375" xlink:href="#m741efc42ff" y="21.32"/>
      </g>
     </g>
     <g id="text_5">
      <!-- 0 -->
      <defs>
       <path d="
M31.7812 66.4062
Q24.1719 66.4062 20.3281 58.9062
Q16.5 51.4219 16.5 36.375
Q16.5 21.3906 20.3281 13.8906
Q24.1719 6.39062 31.7812 6.39062
Q39.4531 6.39062 43.2812 13.8906
Q47.125 21.3906 47.125 36.375
Q47.125 51.4219 43.2812 58.9062
Q39.4531 66.4062 31.7812 66.4062
M31.7812 74.2188
Q44.0469 74.2188 50.5156 64.5156
Q56.9844 54.8281 56.9844 36.375
Q56.9844 17.9688 50.5156 8.26562
Q44.0469 -1.42188 31.7812 -1.42188
Q19.5312 -1.42188 13.0625 8.26562
Q6.59375 17.9688 6.59375 36.375
Q6.59375 54.8281 13.0625 64.5156
Q19.5312 74.2188 31.7812 74.2188" id="BitstreamVeraSans-Roman-30"/>
      </defs>
      <g transform="translate(210.13984375 256.1184375)scale(0.1 -0.1)">
       <use xlink:href="#BitstreamVeraSans-Roman-30"/>
      </g>
     </g>
    </g>
    <g id="xtick_6">
     <g id="line2d_11">
      <g>
       <use style="stroke:#000000;stroke-width:0.5;" x="254.509375" xlink:href="#m93b0483c22" y="244.52"/>
      </g>
     </g>
     <g id="line2d_12">
      <g>
       <use style="stroke:#000000;stroke-width:0.5;" x="254.509375" xlink:href="#m741efc42ff" y="21.32"/>
      </g>
     </g>
     <g id="text_6">
      <!-- 1 -->
      <g transform="translate(252.3390625 256.1184375)scale(0.1 -0.1)">
       <use xlink:href="#BitstreamVeraSans-Roman-31"/>
      </g>
     </g>
    </g>
    <g id="xtick_7">
     <g id="line2d_13">
      <g>
       <use style="stroke:#000000;stroke-width:0.5;" x="296.359375" xlink:href="#m93b0483c22" y="244.52"/>
      </g>
     </g>
     <g id="line2d_14">
      <g>
       <use style="stroke:#000000;stroke-width:0.5;" x="296.359375" xlink:href="#m741efc42ff" y="21.32"/>
      </g>
     </g>
     <g id="text_7">
      <!-- 2 -->
      <g transform="translate(294.0453125 256.1184375)scale(0.1 -0.1)">
       <use xlink:href="#BitstreamVeraSans-Roman-32"/>
      </g>
     </g>
    </g>
    <g id="xtick_8">
     <g id="line2d_15">
      <g>
       <use style="stroke:#000000;stroke-width:0.5;" x="338.209375" xlink:href="#m93b0483c22" y="244.52"/>
      </g>
     </g>
     <g id="line2d_16">
      <g>
       <use style="stroke:#000000;stroke-width:0.5;" x="338.209375" xlink:href="#m741efc42ff" y="21.32"/>
      </g>
     </g>
     <g id="text_8">
      <!-- 3 -->
      <g transform="translate(335.81015625 256.1184375)scale(0.1 -0.1)">
       <use xlink:href="#BitstreamVeraSans-Roman-33"/>
      </g>
     </g>
    </g>
    <g id="xtick_9">
     <g id="line2d_17">
      <g>
       <use style="stroke:#000000;stroke-width:0.5;" x="380.059375" xlink:href="#m93b0483c22" y="244.52"/>
      </g>
     </g>
     <g id="line2d_18">
      <g>
       <use style="stroke:#000000;stroke-width:0.5;" x="380.059375" xlink:href="#m741efc42ff" y="21.32"/>
      </g>
     </g>
     <g id="text_9">
      <!-- 4 -->
      <g transform="translate(377.403125 256.1184375)scale(0.1 -0.1)">
       <use xlink:href="#BitstreamVeraSans-Roman-34"/>
      </g>
     </g>
    </g>
    <g id="text_10">
     <!-- $x_2$ -->
     <defs>
      <path d="
M4.98438 0
L4.98438 2.6875
Q4.98438 2.9375 5.17188 3.21875
L20.7031 20.4062
Q24.2188 24.2188 26.4062 26.7969
Q28.6094 29.3906 30.75 32.7656
Q32.9062 36.1406 34.1562 39.625
Q35.4062 43.1094 35.4062 47.0156
Q35.4062 51.125 33.8906 54.8594
Q32.375 58.5938 29.375 60.8438
Q26.375 63.0938 22.125 63.0938
Q17.7812 63.0938 14.3125 60.4688
Q10.8438 57.8594 9.42188 53.7188
Q9.8125 53.8125 10.5 53.8125
Q12.75 53.8125 14.3281 52.2969
Q15.9219 50.7812 15.9219 48.3906
Q15.9219 46.0938 14.3281 44.5
Q12.75 42.9219 10.5 42.9219
Q8.15625 42.9219 6.5625 44.5469
Q4.98438 46.1875 4.98438 48.3906
Q4.98438 52.1562 6.39062 55.4375
Q7.8125 58.7344 10.4688 61.2969
Q13.1406 63.875 16.4844 65.2344
Q19.8281 66.6094 23.5781 66.6094
Q29.2969 66.6094 34.2188 64.1875
Q39.1562 61.7656 42.0312 57.3438
Q44.9219 52.9375 44.9219 47.0156
Q44.9219 42.6719 43.0156 38.7656
Q41.1094 34.8594 38.125 31.6562
Q35.1562 28.4688 30.5156 24.4062
Q25.875 20.3594 24.4219 19
L13.0938 8.10938
L22.7031 8.10938
Q29.7812 8.10938 34.5469 8.21875
Q39.3125 8.34375 39.5938 8.59375
Q40.7656 9.85938 42 17.8281
L44.9219 17.8281
L42.0938 0
z
" id="Cmr10-32"/>
      <path d="
M7.8125 2.875
Q9.57812 1.51562 12.7969 1.51562
Q15.9219 1.51562 18.3125 4.51562
Q20.7031 7.51562 21.5781 11.0781
L26.125 28.8125
Q27.2031 33.6406 27.2031 35.4062
Q27.2031 37.8906 25.8125 39.75
Q24.4219 41.6094 21.9219 41.6094
Q18.75 41.6094 15.9688 39.625
Q13.1875 37.6406 11.2812 34.5938
Q9.375 31.5469 8.59375 28.4219
Q8.40625 27.7812 7.8125 27.7812
L6.59375 27.7812
Q5.8125 27.7812 5.8125 28.7188
L5.8125 29
Q6.78125 32.7188 9.125 36.25
Q11.4688 39.7969 14.8594 41.9844
Q18.2656 44.1875 22.125 44.1875
Q25.7812 44.1875 28.7344 42.2344
Q31.6875 40.2812 32.9062 36.9219
Q34.625 39.9844 37.2812 42.0781
Q39.9375 44.1875 43.1094 44.1875
Q45.2656 44.1875 47.5 43.4219
Q49.75 42.6719 51.1719 41.1094
Q52.5938 39.5469 52.5938 37.2031
Q52.5938 34.6719 50.9531 32.8281
Q49.3125 31 46.7812 31
Q45.1719 31 44.0938 32.0312
Q43.0156 33.0625 43.0156 34.625
Q43.0156 36.7188 44.4531 38.2969
Q45.9062 39.8906 47.9062 40.1875
Q46.0938 41.6094 42.9219 41.6094
Q39.7031 41.6094 37.3281 38.625
Q34.9688 35.6406 33.9844 31.9844
L29.5938 14.3125
Q28.5156 10.2969 28.5156 7.71875
Q28.5156 5.17188 29.9531 3.34375
Q31.3906 1.51562 33.7969 1.51562
Q38.4844 1.51562 42.1562 5.64062
Q45.8438 9.76562 47.0156 14.7031
Q47.2188 15.2812 47.7969 15.2812
L49.0312 15.2812
Q49.4219 15.2812 49.6562 15.0156
Q49.9062 14.75 49.9062 14.4062
Q49.9062 14.3125 49.8125 14.1094
Q48.3906 8.15625 43.8438 3.51562
Q39.3125 -1.125 33.5938 -1.125
Q29.9375 -1.125 26.9844 0.84375
Q24.0312 2.82812 22.7969 6.20312
Q21.2344 3.26562 18.4688 1.0625
Q15.7188 -1.125 12.5938 -1.125
Q10.4531 -1.125 8.17188 -0.359375
Q5.90625 0.390625 4.48438 1.95312
Q3.07812 3.51562 3.07812 5.90625
Q3.07812 8.25 4.70312 10.1719
Q6.34375 12.1094 8.79688 12.1094
Q10.4531 12.1094 11.5781 11.1094
Q12.7031 10.1094 12.7031 8.5
Q12.7031 6.39062 11.2969 4.82812
Q9.90625 3.26562 7.8125 2.875" id="Cmmi10-78"/>
     </defs>
     <g transform="translate(207.259375 270.27625)scale(0.1 -0.1)">
      <use transform="translate(0.0 0.8125)" xlink:href="#Cmmi10-78"/>
      <use transform="translate(57.080078125 -24.696875)scale(0.7)" xlink:href="#Cmr10-32"/>
     </g>
    </g>
   </g>
   <g id="matplotlib.axis_2">
    <g id="ytick_1">
     <g id="line2d_19">
      <defs>
       <path d="
M0 0
L4 0" id="m728421d6d4" style="stroke:#000000;stroke-width:0.5;"/>
      </defs>
      <g>
       <use style="stroke:#000000;stroke-width:0.5;" x="45.259375" xlink:href="#m728421d6d4" y="244.52"/>
      </g>
     </g>
     <g id="line2d_20">
      <defs>
       <path d="
M0 0
L-4 0" id="mcb0005524f" style="stroke:#000000;stroke-width:0.5;"/>
      </defs>
      <g>
       <use style="stroke:#000000;stroke-width:0.5;" x="380.059375" xlink:href="#mcb0005524f" y="244.52"/>
      </g>
     </g>
     <g id="text_11">
      <!-- −15 -->
      <defs>
       <path d="
M10.7969 72.9062
L49.5156 72.9062
L49.5156 64.5938
L19.8281 64.5938
L19.8281 46.7344
Q21.9688 47.4688 24.1094 47.8281
Q26.2656 48.1875 28.4219 48.1875
Q40.625 48.1875 47.75 41.5
Q54.8906 34.8125 54.8906 23.3906
Q54.8906 11.625 47.5625 5.09375
Q40.2344 -1.42188 26.9062 -1.42188
Q22.3125 -1.42188 17.5469 -0.640625
Q12.7969 0.140625 7.71875 1.70312
L7.71875 11.625
Q12.1094 9.23438 16.7969 8.0625
Q21.4844 6.89062 26.7031 6.89062
Q35.1562 6.89062 40.0781 11.3281
Q45.0156 15.7656 45.0156 23.3906
Q45.0156 31 40.0781 35.4375
Q35.1562 39.8906 26.7031 39.8906
Q22.75 39.8906 18.8125 39.0156
Q14.8906 38.1406 10.7969 36.2812
z
" id="BitstreamVeraSans-Roman-35"/>
      </defs>
      <g transform="translate(22.0875 247.279375)scale(0.1 -0.1)">
       <use xlink:href="#BitstreamVeraSans-Roman-2212"/>
       <use x="83.7890625" xlink:href="#BitstreamVeraSans-Roman-31"/>
       <use x="147.412109375" xlink:href="#BitstreamVeraSans-Roman-35"/>
      </g>
     </g>
    </g>
    <g id="ytick_2">
     <g id="line2d_21">
      <g>
       <use style="stroke:#000000;stroke-width:0.5;" x="45.259375" xlink:href="#m728421d6d4" y="207.32"/>
      </g>
     </g>
     <g id="line2d_22">
      <g>
       <use style="stroke:#000000;stroke-width:0.5;" x="380.059375" xlink:href="#mcb0005524f" y="207.32"/>
      </g>
     </g>
     <g id="text_12">
      <!-- −10 -->
      <g transform="translate(21.878125 210.079375)scale(0.1 -0.1)">
       <use xlink:href="#BitstreamVeraSans-Roman-2212"/>
       <use x="83.7890625" xlink:href="#BitstreamVeraSans-Roman-31"/>
       <use x="147.412109375" xlink:href="#BitstreamVeraSans-Roman-30"/>
      </g>
     </g>
    </g>
    <g id="ytick_3">
     <g id="line2d_23">
      <g>
       <use style="stroke:#000000;stroke-width:0.5;" x="45.259375" xlink:href="#m728421d6d4" y="170.12"/>
      </g>
     </g>
     <g id="line2d_24">
      <g>
       <use style="stroke:#000000;stroke-width:0.5;" x="380.059375" xlink:href="#mcb0005524f" y="170.12"/>
      </g>
     </g>
     <g id="text_13">
      <!-- −5 -->
      <g transform="translate(28.45 172.879375)scale(0.1 -0.1)">
       <use xlink:href="#BitstreamVeraSans-Roman-2212"/>
       <use x="83.7890625" xlink:href="#BitstreamVeraSans-Roman-35"/>
      </g>
     </g>
    </g>
    <g id="ytick_4">
     <g id="line2d_25">
      <g>
       <use style="stroke:#000000;stroke-width:0.5;" x="45.259375" xlink:href="#m728421d6d4" y="132.92"/>
      </g>
     </g>
     <g id="line2d_26">
      <g>
       <use style="stroke:#000000;stroke-width:0.5;" x="380.059375" xlink:href="#mcb0005524f" y="132.92"/>
      </g>
     </g>
     <g id="text_14">
      <!-- 0 -->
      <g transform="translate(36.2203125 135.679375)scale(0.1 -0.1)">
       <use xlink:href="#BitstreamVeraSans-Roman-30"/>
      </g>
     </g>
    </g>
    <g id="ytick_5">
     <g id="line2d_27">
      <g>
       <use style="stroke:#000000;stroke-width:0.5;" x="45.259375" xlink:href="#m728421d6d4" y="95.72"/>
      </g>
     </g>
     <g id="line2d_28">
      <g>
       <use style="stroke:#000000;stroke-width:0.5;" x="380.059375" xlink:href="#mcb0005524f" y="95.72"/>
      </g>
     </g>
     <g id="text_15">
      <!-- 5 -->
      <g transform="translate(36.5421875 98.479375)scale(0.1 -0.1)">
       <use xlink:href="#BitstreamVeraSans-Roman-35"/>
      </g>
     </g>
    </g>
    <g id="ytick_6">
     <g id="line2d_29">
      <g>
       <use style="stroke:#000000;stroke-width:0.5;" x="45.259375" xlink:href="#m728421d6d4" y="58.52"/>
      </g>
     </g>
     <g id="line2d_30">
      <g>
       <use style="stroke:#000000;stroke-width:0.5;" x="380.059375" xlink:href="#mcb0005524f" y="58.52"/>
      </g>
     </g>
     <g id="text_16">
      <!-- 10 -->
      <g transform="translate(30.296875 61.279375)scale(0.1 -0.1)">
       <use xlink:href="#BitstreamVeraSans-Roman-31"/>
       <use x="63.623046875" xlink:href="#BitstreamVeraSans-Roman-30"/>
      </g>
     </g>
    </g>
    <g id="ytick_7">
     <g id="line2d_31">
      <g>
       <use style="stroke:#000000;stroke-width:0.5;" x="45.259375" xlink:href="#m728421d6d4" y="21.32"/>
      </g>
     </g>
     <g id="line2d_32">
      <g>
       <use style="stroke:#000000;stroke-width:0.5;" x="380.059375" xlink:href="#mcb0005524f" y="21.32"/>
      </g>
     </g>
     <g id="text_17">
      <!-- 15 -->
      <g transform="translate(30.50625 24.079375)scale(0.1 -0.1)">
       <use xlink:href="#BitstreamVeraSans-Roman-31"/>
       <use x="63.623046875" xlink:href="#BitstreamVeraSans-Roman-35"/>
      </g>
     </g>
    </g>
    <g id="text_18">
     <!-- $x_3$ -->
     <defs>
      <path d="
M9.51562 7.71875
Q11.8594 4.29688 15.8125 2.64062
Q19.7812 0.984375 24.3125 0.984375
Q30.125 0.984375 32.5625 5.9375
Q35.0156 10.8906 35.0156 17.1875
Q35.0156 20.0156 34.5 22.8438
Q33.9844 25.6875 32.7656 28.125
Q31.5469 30.5625 29.4219 32.0312
Q27.2969 33.5 24.2188 33.5
L17.5781 33.5
Q16.7031 33.5 16.7031 34.4219
L16.7031 35.2969
Q16.7031 36.0781 17.5781 36.0781
L23.0938 36.5312
Q26.6094 36.5312 28.9219 39.1562
Q31.25 41.7969 32.3281 45.5781
Q33.4062 49.3594 33.4062 52.7812
Q33.4062 57.5625 31.1562 60.6406
Q28.9062 63.7188 24.3125 63.7188
Q20.5156 63.7188 17.0469 62.2812
Q13.5781 60.8438 11.5312 57.9062
Q11.7188 57.9531 11.8594 57.9844
Q12.0156 58.0156 12.2031 58.0156
Q14.4531 58.0156 15.9688 56.4531
Q17.4844 54.8906 17.4844 52.6875
Q17.4844 50.5312 15.9688 48.9688
Q14.4531 47.4062 12.2031 47.4062
Q10.0156 47.4062 8.45312 48.9688
Q6.89062 50.5312 6.89062 52.6875
Q6.89062 56.9844 9.46875 60.1562
Q12.0625 63.3281 16.1406 64.9688
Q20.2188 66.6094 24.3125 66.6094
Q27.3438 66.6094 30.7031 65.7031
Q34.0781 64.7969 36.8125 63.1094
Q39.5469 61.4219 41.2812 58.7812
Q43.0156 56.1562 43.0156 52.7812
Q43.0156 48.5781 41.1406 45.0156
Q39.2656 41.4531 35.9844 38.8594
Q32.7188 36.2812 28.8125 35.0156
Q33.1562 34.1875 37.0625 31.7344
Q40.9688 29.2969 43.3281 25.4844
Q45.7031 21.6875 45.7031 17.2812
Q45.7031 11.7656 42.6719 7.29688
Q39.6562 2.82812 34.7188 0.3125
Q29.7812 -2.20312 24.3125 -2.20312
Q19.625 -2.20312 14.9062 -0.40625
Q10.2031 1.375 7.20312 4.9375
Q4.20312 8.5 4.20312 13.4844
Q4.20312 15.9688 5.85938 17.625
Q7.51562 19.2812 10.0156 19.2812
Q11.625 19.2812 12.9688 18.5312
Q14.3125 17.7812 15.0625 16.4062
Q15.8281 15.0469 15.8281 13.4844
Q15.8281 11.0312 14.1094 9.375
Q12.4062 7.71875 10.0156 7.71875
z
" id="Cmr10-33"/>
     </defs>
     <g transform="translate(14.078125 138.32)rotate(-90.0)scale(0.1 -0.1)">
      <use transform="translate(0.0 0.8125)" xlink:href="#Cmmi10-78"/>
      <use transform="translate(57.080078125 -24.696875)scale(0.7)" xlink:href="#Cmr10-33"/>
     </g>
    </g>
   </g>
   <g id="text_19">
    <!-- scatterplot of $x_2$ and $x_3$ -->
    <defs>
     <path id="BitstreamVeraSans-Roman-20"/>
     <path d="
M54.8906 33.0156
L54.8906 0
L45.9062 0
L45.9062 32.7188
Q45.9062 40.4844 42.875 44.3281
Q39.8438 48.1875 33.7969 48.1875
Q26.5156 48.1875 22.3125 43.5469
Q18.1094 38.9219 18.1094 30.9062
L18.1094 0
L9.07812 0
L9.07812 54.6875
L18.1094 54.6875
L18.1094 46.1875
Q21.3438 51.125 25.7031 53.5625
Q30.0781 56 35.7969 56
Q45.2188 56 50.0469 50.1719
Q54.8906 44.3438 54.8906 33.0156" id="BitstreamVeraSans-Roman-6e"/>
     <path d="
M34.2812 27.4844
Q23.3906 27.4844 19.1875 25
Q14.9844 22.5156 14.9844 16.5
Q14.9844 11.7188 18.1406 8.90625
Q21.2969 6.10938 26.7031 6.10938
Q34.1875 6.10938 38.7031 11.4062
Q43.2188 16.7031 43.2188 25.4844
L43.2188 27.4844
z

M52.2031 31.2031
L52.2031 0
L43.2188 0
L43.2188 8.29688
Q40.1406 3.32812 35.5469 0.953125
Q30.9531 -1.42188 24.3125 -1.42188
Q15.9219 -1.42188 10.9531 3.29688
Q6 8.01562 6 15.9219
Q6 25.1406 12.1719 29.8281
Q18.3594 34.5156 30.6094 34.5156
L43.2188 34.5156
L43.2188 35.4062
Q43.2188 41.6094 39.1406 45
Q35.0625 48.3906 27.6875 48.3906
Q23 48.3906 18.5469 47.2656
Q14.1094 46.1406 10.0156 43.8906
L10.0156 52.2031
Q14.9375 54.1094 19.5781 55.0469
Q24.2188 56 28.6094 56
Q40.4844 56 46.3438 49.8438
Q52.2031 43.7031 52.2031 31.2031" id="BitstreamVeraSans-Roman-61"/>
     <path d="
M30.6094 48.3906
Q23.3906 48.3906 19.1875 42.75
Q14.9844 37.1094 14.9844 27.2969
Q14.9844 17.4844 19.1562 11.8438
Q23.3438 6.20312 30.6094 6.20312
Q37.7969 6.20312 41.9844 11.8594
Q46.1875 17.5312 46.1875 27.2969
Q46.1875 37.0156 41.9844 42.7031
Q37.7969 48.3906 30.6094 48.3906
M30.6094 56
Q42.3281 56 49.0156 48.375
Q55.7188 40.7656 55.7188 27.2969
Q55.7188 13.875 49.0156 6.21875
Q42.3281 -1.42188 30.6094 -1.42188
Q18.8438 -1.42188 12.1719 6.21875
Q5.51562 13.875 5.51562 27.2969
Q5.51562 40.7656 12.1719 48.375
Q18.8438 56 30.6094 56" id="BitstreamVeraSans-Roman-6f"/>
     <path d="
M9.42188 75.9844
L18.4062 75.9844
L18.4062 0
L9.42188 0
z
" id="BitstreamVeraSans-Roman-6c"/>
     <path d="
M18.1094 8.20312
L18.1094 -20.7969
L9.07812 -20.7969
L9.07812 54.6875
L18.1094 54.6875
L18.1094 46.3906
Q20.9531 51.2656 25.2656 53.625
Q29.5938 56 35.5938 56
Q45.5625 56 51.7812 48.0938
Q58.0156 40.1875 58.0156 27.2969
Q58.0156 14.4062 51.7812 6.48438
Q45.5625 -1.42188 35.5938 -1.42188
Q29.5938 -1.42188 25.2656 0.953125
Q20.9531 3.32812 18.1094 8.20312
M48.6875 27.2969
Q48.6875 37.2031 44.6094 42.8438
Q40.5312 48.4844 33.4062 48.4844
Q26.2656 48.4844 22.1875 42.8438
Q18.1094 37.2031 18.1094 27.2969
Q18.1094 17.3906 22.1875 11.75
Q26.2656 6.10938 33.4062 6.10938
Q40.5312 6.10938 44.6094 11.75
Q48.6875 17.3906 48.6875 27.2969" id="BitstreamVeraSans-Roman-70"/>
     <path d="
M56.2031 29.5938
L56.2031 25.2031
L14.8906 25.2031
Q15.4844 15.9219 20.4844 11.0625
Q25.4844 6.20312 34.4219 6.20312
Q39.5938 6.20312 44.4531 7.46875
Q49.3125 8.73438 54.1094 11.2812
L54.1094 2.78125
Q49.2656 0.734375 44.1875 -0.34375
Q39.1094 -1.42188 33.8906 -1.42188
Q20.7969 -1.42188 13.1562 6.1875
Q5.51562 13.8125 5.51562 26.8125
Q5.51562 40.2344 12.7656 48.1094
Q20.0156 56 32.3281 56
Q43.3594 56 49.7812 48.8906
Q56.2031 41.7969 56.2031 29.5938
M47.2188 32.2344
Q47.125 39.5938 43.0938 43.9844
Q39.0625 48.3906 32.4219 48.3906
Q24.9062 48.3906 20.3906 44.1406
Q15.875 39.8906 15.1875 32.1719
z
" id="BitstreamVeraSans-Roman-65"/>
     <path d="
M45.4062 46.3906
L45.4062 75.9844
L54.3906 75.9844
L54.3906 0
L45.4062 0
L45.4062 8.20312
Q42.5781 3.32812 38.25 0.953125
Q33.9375 -1.42188 27.875 -1.42188
Q17.9688 -1.42188 11.7344 6.48438
Q5.51562 14.4062 5.51562 27.2969
Q5.51562 40.1875 11.7344 48.0938
Q17.9688 56 27.875 56
Q33.9375 56 38.25 53.625
Q42.5781 51.2656 45.4062 46.3906
M14.7969 27.2969
Q14.7969 17.3906 18.875 11.75
Q22.9531 6.10938 30.0781 6.10938
Q37.2031 6.10938 41.2969 11.75
Q45.4062 17.3906 45.4062 27.2969
Q45.4062 37.2031 41.2969 42.8438
Q37.2031 48.4844 30.0781 48.4844
Q22.9531 48.4844 18.875 42.8438
Q14.7969 37.2031 14.7969 27.2969" id="BitstreamVeraSans-Roman-64"/>
     <path d="
M18.3125 70.2188
L18.3125 54.6875
L36.8125 54.6875
L36.8125 47.7031
L18.3125 47.7031
L18.3125 18.0156
Q18.3125 11.3281 20.1406 9.42188
Q21.9688 7.51562 27.5938 7.51562
L36.8125 7.51562
L36.8125 0
L27.5938 0
Q17.1875 0 13.2344 3.875
Q9.28125 7.76562 9.28125 18.0156
L9.28125 47.7031
L2.6875 47.7031
L2.6875 54.6875
L9.28125 54.6875
L9.28125 70.2188
z
" id="BitstreamVeraSans-Roman-74"/>
     <path d="
M37.1094 75.9844
L37.1094 68.5
L28.5156 68.5
Q23.6875 68.5 21.7969 66.5469
Q19.9219 64.5938 19.9219 59.5156
L19.9219 54.6875
L34.7188 54.6875
L34.7188 47.7031
L19.9219 47.7031
L19.9219 0
L10.8906 0
L10.8906 47.7031
L2.29688 47.7031
L2.29688 54.6875
L10.8906 54.6875
L10.8906 58.5
Q10.8906 67.625 15.1406 71.7969
Q19.3906 75.9844 28.6094 75.9844
z
" id="BitstreamVeraSans-Roman-66"/>
     <path d="
M41.1094 46.2969
Q39.5938 47.1719 37.8125 47.5781
Q36.0312 48 33.8906 48
Q26.2656 48 22.1875 43.0469
Q18.1094 38.0938 18.1094 28.8125
L18.1094 0
L9.07812 0
L9.07812 54.6875
L18.1094 54.6875
L18.1094 46.1875
Q20.9531 51.1719 25.4844 53.5781
Q30.0312 56 36.5312 56
Q37.4531 56 38.5781 55.875
Q39.7031 55.7656 41.0625 55.5156
z
" id="BitstreamVeraSans-Roman-72"/>
     <path d="
M44.2812 53.0781
L44.2812 44.5781
Q40.4844 46.5312 36.375 47.5
Q32.2812 48.4844 27.875 48.4844
Q21.1875 48.4844 17.8438 46.4375
Q14.5 44.3906 14.5 40.2812
Q14.5 37.1562 16.8906 35.375
Q19.2812 33.5938 26.5156 31.9844
L29.5938 31.2969
Q39.1562 29.25 43.1875 25.5156
Q47.2188 21.7812 47.2188 15.0938
Q47.2188 7.46875 41.1875 3.01562
Q35.1562 -1.42188 24.6094 -1.42188
Q20.2188 -1.42188 15.4531 -0.5625
Q10.6875 0.296875 5.42188 2
L5.42188 11.2812
Q10.4062 8.6875 15.2344 7.39062
Q20.0625 6.10938 24.8125 6.10938
Q31.1562 6.10938 34.5625 8.28125
Q37.9844 10.4531 37.9844 14.4062
Q37.9844 18.0625 35.5156 20.0156
Q33.0625 21.9688 24.7031 23.7812
L21.5781 24.5156
Q13.2344 26.2656 9.51562 29.9062
Q5.8125 33.5469 5.8125 39.8906
Q5.8125 47.6094 11.2812 51.7969
Q16.75 56 26.8125 56
Q31.7812 56 36.1719 55.2656
Q40.5781 54.5469 44.2812 53.0781" id="BitstreamVeraSans-Roman-73"/>
     <path d="
M48.7812 52.5938
L48.7812 44.1875
Q44.9688 46.2969 41.1406 47.3438
Q37.3125 48.3906 33.4062 48.3906
Q24.6562 48.3906 19.8125 42.8438
Q14.9844 37.3125 14.9844 27.2969
Q14.9844 17.2812 19.8125 11.7344
Q24.6562 6.20312 33.4062 6.20312
Q37.3125 6.20312 41.1406 7.25
Q44.9688 8.29688 48.7812 10.4062
L48.7812 2.09375
Q45.0156 0.34375 40.9844 -0.53125
Q36.9688 -1.42188 32.4219 -1.42188
Q20.0625 -1.42188 12.7812 6.34375
Q5.51562 14.1094 5.51562 27.2969
Q5.51562 40.6719 12.8594 48.3281
Q20.2188 56 33.0156 56
Q37.1562 56 41.1094 55.1406
Q45.0625 54.2969 48.7812 52.5938" id="BitstreamVeraSans-Roman-63"/>
    </defs>
    <g transform="translate(142.639375 16.32)scale(0.12 -0.12)">
     <use transform="translate(0.0 0.015625)" xlink:href="#BitstreamVeraSans-Roman-73"/>
     <use transform="translate(52.099609375 0.015625)" xlink:href="#BitstreamVeraSans-Roman-63"/>
     <use transform="translate(107.080078125 0.015625)" xlink:href="#BitstreamVeraSans-Roman-61"/>
     <use transform="translate(168.359375 0.015625)" xlink:href="#BitstreamVeraSans-Roman-74"/>
     <use transform="translate(207.568359375 0.015625)" xlink:href="#BitstreamVeraSans-Roman-74"/>
     <use transform="translate(246.77734375 0.015625)" xlink:href="#BitstreamVeraSans-Roman-65"/>
     <use transform="translate(308.30078125 0.015625)" xlink:href="#BitstreamVeraSans-Roman-72"/>
     <use transform="translate(349.4140625 0.015625)" xlink:href="#BitstreamVeraSans-Roman-70"/>
     <use transform="translate(412.890625 0.015625)" xlink:href="#BitstreamVeraSans-Roman-6c"/>
     <use transform="translate(440.673828125 0.015625)" xlink:href="#BitstreamVeraSans-Roman-6f"/>
     <use transform="translate(501.85546875 0.015625)" xlink:href="#BitstreamVeraSans-Roman-74"/>
     <use transform="translate(541.064453125 0.015625)" xlink:href="#BitstreamVeraSans-Roman-20"/>
     <use transform="translate(572.8515625 0.015625)" xlink:href="#BitstreamVeraSans-Roman-6f"/>
     <use transform="translate(634.033203125 0.015625)" xlink:href="#BitstreamVeraSans-Roman-66"/>
     <use transform="translate(669.23828125 0.015625)" xlink:href="#BitstreamVeraSans-Roman-20"/>
     <use transform="translate(701.025390625 0.015625)" xlink:href="#Cmmi10-78"/>
     <use transform="translate(758.10546875 -25.49375)scale(0.7)" xlink:href="#Cmr10-32"/>
     <use transform="translate(808.10546875 0.015625)" xlink:href="#BitstreamVeraSans-Roman-20"/>
     <use transform="translate(839.892578125 0.015625)" xlink:href="#BitstreamVeraSans-Roman-61"/>
     <use transform="translate(901.171875 0.015625)" xlink:href="#BitstreamVeraSans-Roman-6e"/>
     <use transform="translate(964.55078125 0.015625)" xlink:href="#BitstreamVeraSans-Roman-64"/>
     <use transform="translate(1028.02734375 0.015625)" xlink:href="#BitstreamVeraSans-Roman-20"/>
     <use transform="translate(1059.81445312 0.015625)" xlink:href="#Cmmi10-78"/>
     <use transform="translate(1116.89453125 -25.49375)scale(0.7)" xlink:href="#Cmr10-33"/>
    </g>
   </g>
  </g>
 </g>
 <defs>
  <clipPath id="p000d492ab2">
   <rect height="223.2" width="334.8" x="45.259375" y="21.32"/>
  </clipPath>
 </defs>
</svg>
